<svg width="29" height="28" xmlns="http://www.w3.org/2000/svg" xmlns:xlink="http://www.w3.org/1999/xlink" xml:space="preserve" overflow="hidden"><defs><clipPath id="clip0"><rect x="504" y="320" width="29" height="28"/></clipPath></defs><g clip-path="url(#clip0)" transform="translate(-504 -320)"><path d="M24.9375 22.05 21.2917 18.4042C20.7958 17.9083 20.125 17.7333 19.4833 17.85L18.2 16.5667C19.3375 15.1083 20.0083 13.2417 20.0083 11.2583 20.0083 6.44583 16.0708 2.50833 11.2583 2.50833 6.44583 2.50833 2.50833 6.44583 2.50833 11.2583 2.50833 16.0708 6.44583 20.0083 11.2583 20.0083 13.2417 20.0083 15.0792 19.3375 16.5667 18.2L17.85 19.4833C17.7333 20.125 17.9083 20.7958 18.4042 21.2917L22.05 24.9375C22.4583 25.3458 22.9833 25.55 23.5083 25.55 24.0333 25.55 24.5583 25.3458 24.9667 24.9375 25.725 24.1208 25.725 22.8375 24.9375 22.05ZM11.2292 18.2292C7.37917 18.2292 4.22917 15.0792 4.22917 11.2292 4.22917 7.37917 7.37917 4.22917 11.2292 4.22917 15.0792 4.22917 18.2292 7.37917 18.2292 11.2292 18.2292 15.0792 15.0792 18.2292 11.2292 18.2292Z" transform="matrix(-1.03571 0 0 1 533 320)"/></g></svg>